<svg xmlns="http://www.w3.org/2000/svg" height="512" width="512" style=""><rect id="backgroundrect" width="100%" height="100%" x="0" y="0" fill="none" stroke="none"/><g class="currentLayer" style=""><title>Layer 1</title><path id="pinIcon" d="m239.617188 400.425781c-12.515626 16.046875-25.113282 31.570313-37.320313 46.105469l-37.296875 47.421875s-62.101562-77.480469-74.617188-93.527344c-33.230468 9.105469-60.382812 25.246094-60.382812 50.574219 0 39.390625 67.910156 61 135 61s135-21.609375 135-61c0-25.328125-27.152344-41.46875-60.382812-50.574219zm0 0" class="selected" fill-opacity="1" fill="#6c0073"/><path d="m135 212.199219c-8.277344 0-15 6.726562-15 15 0 8.277343 6.722656 15 15 15s15-6.722657 15-15c0-8.273438-6.722656-15-15-15zm0 0" id="svg_1" class="" fill="#6c0073" fill-opacity="1"/><path d="m165 444.980469 11.703125-14.605469c6.257813-7.808594 153.296875-178.273438 153.296875-265.375 0-90.980469-74.019531-165-165-165s-165 74.019531-165 165c0 87.101562 147.039062 257.566406 153.296875 265.375zm-75-217.78125c0-24.8125 20.1875-45 45-45 5.285156 0 10.285156 1.082031 15 2.765625v-123.765625h15c41.351562 0 75 33.648437 75 75v46h-30v-46c0-19.554688-12.539062-36.238281-30-42.433594v133.433594c0 24.816406-20.1875 45-45 45s-45-20.183594-45-45zm0 0" id="svg_2" class="" fill="#6c0073" fill-opacity="1"/></g></svg>