<?xml version="1.0"?>
<svg xmlns="http://www.w3.org/2000/svg" id="Layer_1" data-name="Layer 1" viewBox="0 0 512 512" width="512" height="512"><title>UserLocation map pin </title><path d="M409.384,403.665c-15.862-7.426-38.348-13.59-65.03-17.825a6,6,0,1,0-1.88,11.851c56.651,8.994,82.454,24.864,82.454,35.8,0,.034,0,.069,0,.1.046,2.669-1.4,5.52-4.309,8.476-9.012,9.168-29.843,17.6-58.655,23.752-30.471,6.5-67.033,9.94-105.736,9.94-46.194,0-89.588-4.945-122.191-13.922-34.629-9.535-46.968-20.9-46.968-28.35,0-11.18,24.858-26.571,80.392-35.753a6,6,0,0,0-1.957-11.84c-27.192,4.5-90.435,18.134-90.435,47.593,0,35.251,93.337,54.272,181.159,54.272,81.529,0,151.032-14.982,172.949-37.28,5.23-5.322,7.838-11.056,7.75-17.045C436.9,422.228,427.632,412.209,409.384,403.665Z"/><path d="M207.886,195.017a26.737,26.737,0,0,1,19.028-7.881h11.251a6,6,0,0,1,4.184,1.7l13.725,13.351,14.307-13.425a6,6,0,0,1,4.105-1.625h10.6c.894,0,1.806.046,2.707.136a26.958,26.958,0,0,1,22.7,17.887,63.959,63.959,0,0,0,6.292-27.009c.379-34.435-26.524-62.75-59.974-63.118A59.19,59.19,0,0,0,213.777,132.8a62.969,62.969,0,0,0-18.309,44.02,63.822,63.822,0,0,0,6.125,28.077A26.8,26.8,0,0,1,207.886,195.017Zm21.279-45.129a26.131,26.131,0,0,1,52.261,0v8.052a26.131,26.131,0,0,1-52.261,0Z"/><path d="M286.587,199.212a14.836,14.836,0,0,0-1.5-.076H276.86L260.1,214.858c-.114.107-.244.183-.363.279a5.945,5.945,0,0,1-.5.38,5.74,5.74,0,0,1-.5.275,6,6,0,0,1-.541.263c-.178.07-.361.117-.544.169a5.631,5.631,0,0,1-.567.149c-.186.034-.372.045-.56.062s-.389.039-.587.037-.368-.026-.552-.045a5.838,5.838,0,0,1-.59-.076c-.183-.037-.36-.1-.538-.151a5.79,5.79,0,0,1-.567-.188c-.177-.074-.345-.171-.517-.263s-.349-.181-.516-.293a5.868,5.868,0,0,1-.477-.379c-.122-.1-.253-.181-.369-.293l-16.086-15.648h-8.814A14.913,14.913,0,0,0,212,214.05a14.991,14.991,0,0,0,.075,1.5,5.828,5.828,0,0,1,.031.606v49.378a5.106,5.106,0,0,0,5.105,5.1h0a5.3,5.3,0,0,0,5.1-5.414,6.082,6.082,0,0,1,.08-.932,6,6,0,0,1,11.984.186l2.972,90.071a.248.248,0,0,0,.233.161h37.142a.247.247,0,0,0,.233-.162l2.728-88.573c0-.15-.023-.3-.023-.447a6.065,6.065,0,0,1,.062-.813l.006-.224a6,6,0,0,1,12,.369l-.031.986a5.1,5.1,0,0,0,10.2-.318v-49.37a5.822,5.822,0,0,1,.03-.6,14.912,14.912,0,0,0-13.335-16.342Z"/><path d="M255.3,172.07a14.147,14.147,0,0,0,14.131-14.13v-8.052a14.131,14.131,0,0,0-28.261,0v8.052A14.146,14.146,0,0,0,255.3,172.07Z"/><path d="M249.08,420.458a6,6,0,0,0,4.353,1.941h.066a6,6,0,0,0,4.329-1.845l111.688-116.37c17.017-17.732,29.62-37.253,37.458-58.024a159.2,159.2,0,0,0,10.338-65.435A168.952,168.952,0,0,0,369.721,72.149a157.642,157.642,0,0,0-111.906-47.9c-.6-.006-1.2-.01-1.8-.01A157.608,157.608,0,0,0,144.883,69.675a168.95,168.95,0,0,0-49.971,107.5,159.2,159.2,0,0,0,8.9,65.648c7.379,20.938,19.548,40.733,36.172,58.834ZM205.272,124.329a71.464,71.464,0,0,1,51.676-21.3c40.065.442,72.292,34.2,71.841,75.251a75.533,75.533,0,0,1-16.9,46.889v40.357a17.071,17.071,0,0,1-22.686,16.165l-2.265,73.548c0,.13-.011.26-.024.389a12.2,12.2,0,0,1-12.193,11.08H237.582a12.206,12.206,0,0,1-12.191-11.055c-.013-.129-.021-.258-.026-.386l-2.43-73.661a16.653,16.653,0,0,1-5.53,1.029h-.2a17.105,17.105,0,0,1-17.1-17.1V224.914a75.786,75.786,0,0,1,5.166-100.585Z"/></svg>
